<svg xmlns="http://www.w3.org/2000/svg" xmlns:xlink="http://www.w3.org/1999/xlink" width="500" zoomAndPan="magnify" viewBox="0 0 375 374.999991" height="500" preserveAspectRatio="xMidYMid meet" version="1.0"><defs><clipPath id="a2823ed8f3"><path d="M 25.5 37.5 L 349.5 37.5 L 349.5 361.5 L 25.5 361.5 Z M 25.5 37.5 " clip-rule="nonzero"/></clipPath></defs><g clip-path="url(#a2823ed8f3)"><path fill="#e6e6e6" d="M 349.5 199.496094 C 349.5 202.148438 349.433594 204.796875 349.304688 207.445312 C 349.175781 210.09375 348.980469 212.738281 348.71875 215.375 C 348.460938 218.015625 348.136719 220.644531 347.746094 223.265625 C 347.359375 225.890625 346.90625 228.5 346.386719 231.101562 C 345.871094 233.703125 345.289062 236.289062 344.644531 238.859375 C 344 241.429688 343.292969 243.984375 342.523438 246.523438 C 341.753906 249.058594 340.921875 251.578125 340.03125 254.074219 C 339.136719 256.570312 338.183594 259.042969 337.167969 261.492188 C 336.152344 263.941406 335.078125 266.363281 333.945312 268.761719 C 332.8125 271.15625 331.621094 273.523438 330.371094 275.863281 C 329.121094 278.203125 327.816406 280.507812 326.453125 282.78125 C 325.089844 285.054688 323.671875 287.292969 322.199219 289.5 C 320.726562 291.703125 319.199219 293.871094 317.621094 296 C 316.039062 298.128906 314.410156 300.21875 312.726562 302.269531 C 311.046875 304.316406 309.3125 306.324219 307.535156 308.289062 C 305.753906 310.253906 303.925781 312.171875 302.050781 314.046875 C 300.175781 315.921875 298.257812 317.75 296.292969 319.53125 C 294.328125 321.3125 292.320312 323.042969 290.273438 324.726562 C 288.222656 326.40625 286.132812 328.035156 284.003906 329.617188 C 281.875 331.195312 279.707031 332.722656 277.503906 334.195312 C 275.296875 335.667969 273.058594 337.085938 270.785156 338.449219 C 268.511719 339.8125 266.203125 341.117188 263.867188 342.367188 C 261.527344 343.617188 259.160156 344.808594 256.765625 345.941406 C 254.367188 347.078125 251.945312 348.152344 249.496094 349.164062 C 247.046875 350.179688 244.574219 351.132812 242.074219 352.027344 C 239.578125 352.921875 237.0625 353.75 234.527344 354.519531 C 231.988281 355.289062 229.433594 355.996094 226.863281 356.640625 C 224.289062 357.285156 221.703125 357.867188 219.105469 358.382812 C 216.503906 358.902344 213.894531 359.355469 211.269531 359.742188 C 208.648438 360.132812 206.015625 360.457031 203.378906 360.71875 C 200.738281 360.976562 198.097656 361.171875 195.449219 361.300781 C 192.800781 361.433594 190.152344 361.496094 187.5 361.496094 C 184.847656 361.496094 182.199219 361.433594 179.550781 361.300781 C 176.902344 361.171875 174.257812 360.976562 171.621094 360.71875 C 168.984375 360.457031 166.351562 360.132812 163.730469 359.742188 C 161.105469 359.355469 158.496094 358.902344 155.894531 358.382812 C 153.296875 357.867188 150.707031 357.285156 148.136719 356.640625 C 145.566406 355.996094 143.011719 355.289062 140.472656 354.519531 C 137.9375 353.75 135.421875 352.921875 132.921875 352.027344 C 130.425781 351.132812 127.953125 350.179688 125.503906 349.164062 C 123.054688 348.152344 120.632812 347.078125 118.234375 345.941406 C 115.839844 344.808594 113.472656 343.617188 111.132812 342.367188 C 108.796875 341.117188 106.488281 339.8125 104.214844 338.449219 C 101.941406 337.085938 99.703125 335.667969 97.496094 334.195312 C 95.292969 332.722656 93.125 331.195312 90.996094 329.617188 C 88.867188 328.035156 86.777344 326.40625 84.726562 324.726562 C 82.679688 323.042969 80.671875 321.3125 78.707031 319.53125 C 76.742188 317.75 74.824219 315.921875 72.949219 314.046875 C 71.074219 312.171875 69.246094 310.253906 67.464844 308.289062 C 65.683594 306.324219 63.953125 304.316406 62.273438 302.269531 C 60.589844 300.21875 58.960938 298.128906 57.378906 296 C 55.800781 293.871094 54.273438 291.703125 52.800781 289.5 C 51.328125 287.292969 49.910156 285.054688 48.546875 282.78125 C 47.183594 280.507812 45.878906 278.203125 44.628906 275.863281 C 43.378906 273.523438 42.1875 271.15625 41.054688 268.761719 C 39.921875 266.363281 38.847656 263.941406 37.832031 261.492188 C 36.816406 259.042969 35.863281 256.570312 34.96875 254.074219 C 34.078125 251.578125 33.246094 249.058594 32.476562 246.523438 C 31.707031 243.984375 31 241.429688 30.355469 238.859375 C 29.710938 236.289062 29.128906 233.703125 28.613281 231.101562 C 28.09375 228.5 27.640625 225.890625 27.253906 223.265625 C 26.863281 220.644531 26.539062 218.015625 26.28125 215.375 C 26.019531 212.738281 25.824219 210.09375 25.695312 207.445312 C 25.566406 204.796875 25.5 202.148438 25.5 199.496094 C 25.5 196.847656 25.566406 194.195312 25.695312 191.546875 C 25.824219 188.898438 26.019531 186.257812 26.28125 183.617188 C 26.539062 180.980469 26.863281 178.347656 27.253906 175.726562 C 27.640625 173.105469 28.09375 170.492188 28.613281 167.890625 C 29.128906 165.292969 29.710938 162.707031 30.355469 160.132812 C 31 157.5625 31.707031 155.007812 32.476562 152.472656 C 33.246094 149.933594 34.078125 147.417969 34.96875 144.921875 C 35.863281 142.425781 36.816406 139.953125 37.832031 137.503906 C 38.847656 135.054688 39.921875 132.628906 41.054688 130.234375 C 42.1875 127.835938 43.378906 125.46875 44.628906 123.128906 C 45.878906 120.792969 47.183594 118.488281 48.546875 116.210938 C 49.910156 113.9375 51.328125 111.699219 52.800781 109.496094 C 54.273438 107.289062 55.800781 105.125 57.378906 102.992188 C 58.960938 100.863281 60.589844 98.773438 62.273438 96.726562 C 63.953125 94.675781 65.683594 92.667969 67.464844 90.703125 C 69.246094 88.738281 71.074219 86.820312 72.949219 84.945312 C 74.824219 83.070312 76.742188 81.242188 78.707031 79.464844 C 80.671875 77.683594 82.679688 75.953125 84.726562 74.269531 C 86.777344 72.585938 88.867188 70.957031 90.996094 69.378906 C 93.125 67.796875 95.292969 66.273438 97.496094 64.800781 C 99.703125 63.324219 101.941406 61.90625 104.214844 60.546875 C 106.488281 59.183594 108.796875 57.875 111.132812 56.625 C 113.472656 55.375 115.839844 54.183594 118.234375 53.050781 C 120.632812 51.917969 123.054688 50.84375 125.503906 49.828125 C 127.953125 48.8125 130.425781 47.859375 132.921875 46.96875 C 135.421875 46.074219 137.9375 45.242188 140.472656 44.472656 C 143.011719 43.703125 145.566406 42.996094 148.136719 42.351562 C 150.707031 41.707031 153.296875 41.128906 155.894531 40.609375 C 158.496094 40.09375 161.105469 39.640625 163.730469 39.25 C 166.351562 38.863281 168.984375 38.535156 171.621094 38.277344 C 174.257812 38.015625 176.902344 37.820312 179.550781 37.691406 C 182.199219 37.5625 184.847656 37.496094 187.5 37.496094 C 190.152344 37.496094 192.800781 37.5625 195.449219 37.691406 C 198.097656 37.820312 200.738281 38.015625 203.378906 38.277344 C 206.015625 38.535156 208.648438 38.863281 211.269531 39.25 C 213.894531 39.640625 216.503906 40.09375 219.105469 40.609375 C 221.703125 41.128906 224.289062 41.707031 226.863281 42.351562 C 229.433594 42.996094 231.988281 43.703125 234.527344 44.472656 C 237.0625 45.242188 239.578125 46.074219 242.074219 46.96875 C 244.574219 47.859375 247.046875 48.8125 249.496094 49.828125 C 251.945312 50.84375 254.367188 51.917969 256.765625 53.050781 C 259.160156 54.183594 261.527344 55.375 263.867188 56.625 C 266.203125 57.875 268.511719 59.183594 270.785156 60.546875 C 273.058594 61.90625 275.296875 63.324219 277.503906 64.800781 C 279.707031 66.273438 281.875 67.796875 284.003906 69.378906 C 286.132812 70.957031 288.222656 72.585938 290.273438 74.269531 C 292.320312 75.953125 294.328125 77.683594 296.292969 79.464844 C 298.257812 81.242188 300.175781 83.070312 302.050781 84.945312 C 303.925781 86.820312 305.753906 88.738281 307.535156 90.703125 C 309.3125 92.667969 311.046875 94.675781 312.726562 96.726562 C 314.410156 98.773438 316.039062 100.863281 317.621094 102.992188 C 319.199219 105.125 320.726562 107.289062 322.199219 109.496094 C 323.671875 111.699219 325.089844 113.9375 326.453125 116.210938 C 327.816406 118.488281 329.121094 120.792969 330.371094 123.128906 C 331.621094 125.46875 332.8125 127.835938 333.945312 130.234375 C 335.078125 132.628906 336.152344 135.054688 337.167969 137.503906 C 338.183594 139.953125 339.136719 142.425781 340.03125 144.921875 C 340.921875 147.417969 341.753906 149.933594 342.523438 152.472656 C 343.292969 155.007812 344 157.5625 344.644531 160.132812 C 345.289062 162.707031 345.871094 165.292969 346.386719 167.890625 C 346.90625 170.492188 347.359375 173.105469 347.746094 175.726562 C 348.136719 178.347656 348.460938 180.980469 348.71875 183.617188 C 348.980469 186.257812 349.175781 188.898438 349.304688 191.546875 C 349.433594 194.195312 349.5 196.847656 349.5 199.496094 Z M 349.5 199.496094 " fill-opacity="1" fill-rule="nonzero"/></g><path fill="#1a1617" d="M 137.425781 226.113281 C 136.863281 226.554688 136.039062 226.734375 133.914062 227.472656 C 122.757812 231.335938 111.664062 235.910156 100.628906 241.308594 C 93.664062 244.703125 94.34375 243.464844 91.332031 250.515625 C 83.574219 268.574219 76.195312 287.460938 70.765625 305.609375 C 89.03125 325.289062 112.226562 340.339844 138.371094 348.808594 C 148.195312 351.464844 158.40625 353.648438 168.820312 355.449219 C 174.429688 356.097656 180.152344 356.480469 185.9375 356.539062 L 189.507812 356.539062 C 195.144531 356.453125 200.691406 356.097656 206.179688 355.449219 C 216.566406 353.648438 226.804688 351.464844 236.632812 348.808594 C 262.777344 340.339844 285.941406 325.289062 304.234375 305.609375 C 298.804688 287.460938 291.429688 268.574219 283.667969 250.515625 C 280.65625 243.464844 281.335938 244.703125 274.34375 241.308594 C 263.335938 235.910156 252.242188 231.335938 241.085938 227.472656 C 239.582031 226.941406 238.757812 226.703125 238.164062 226.46875 L 238.019531 226.113281 C 235.894531 222.453125 233.386719 219.0625 230.523438 215.875 C 244.066406 216.820312 255.074219 213.453125 261.980469 205.105469 C 268.648438 196.988281 269.03125 190.96875 269.386719 181.144531 C 270.0625 161.875 268.589844 141.160156 263.277344 121.859375 C 258.113281 103.003906 249.320312 85.507812 235.363281 72.050781 C 221.996094 59.1875 206.386719 49.035156 187.5 49.035156 C 174.191406 49.035156 162.65625 51.484375 154.511719 64.378906 C 146.484375 63.347656 142.117188 66.917969 136.777344 72.050781 C 122.820312 85.507812 114.023438 103.003906 108.859375 121.859375 C 103.550781 141.160156 102.074219 161.875 102.753906 181.144531 C 103.105469 190.96875 103.460938 196.988281 110.160156 205.105469 C 117.535156 214.042969 129.636719 217.261719 144.476562 215.636719 L 144.65625 215.636719 C 141.910156 218.765625 139.519531 222.277344 137.425781 226.113281 Z M 137.425781 226.113281 " fill-opacity="1" fill-rule="nonzero"/><path fill="#3d3d3d" d="M 144.476562 215.667969 C 147.398438 212.539062 150.878906 209.617188 154.777344 206.84375 L 156.8125 197.402344 C 149.757812 189.199219 144.449219 178.222656 141.792969 165.679688 C 136.453125 165.796875 130.816406 159.574219 128.632812 150.660156 C 126.859375 143.578125 126.742188 137.855469 128.71875 134.226562 C 132.085938 128.058594 138.105469 131.894531 140.492188 136.46875 C 142.707031 117.757812 150.644531 101.707031 161.769531 91.851562 C 169.824219 100.941406 179.355469 108.464844 191.898438 109.851562 C 215.886719 112.507812 228.574219 121.035156 234.359375 135.199219 C 237.074219 131.246094 242.296875 128.648438 245.367188 134.226562 C 247.3125 137.855469 247.195312 143.578125 245.453125 150.660156 C 243.390625 159.042969 238.285156 165.0625 233.238281 165.621094 C 230.640625 177.75 225.625 188.402344 218.925781 196.515625 L 218.777344 197.402344 L 220.933594 207.347656 C 224.296875 209.617188 227.660156 212.480469 230.375 215.933594 C 243.980469 216.90625 255.042969 213.542969 261.980469 205.164062 C 268.648438 197.046875 269.03125 191.027344 269.386719 181.203125 C 270.0625 161.933594 268.589844 141.1875 263.277344 121.890625 C 258.113281 103.035156 249.320312 85.535156 235.363281 72.109375 C 221.996094 59.246094 206.386719 49.066406 187.5 49.066406 C 174.191406 49.066406 162.65625 51.542969 154.511719 64.410156 C 146.484375 63.375 142.117188 66.976562 136.777344 72.109375 C 122.820312 85.535156 114.023438 103.035156 108.859375 121.890625 C 103.550781 141.1875 102.074219 161.933594 102.753906 181.203125 C 103.105469 191.027344 103.460938 197.046875 110.160156 205.164062 C 117.535156 214.105469 129.636719 217.320312 144.476562 215.667969 Z M 144.476562 215.667969 " fill-opacity="1" fill-rule="nonzero"/><path fill="#f6d5b8" d="M 234.359375 135.199219 C 237.074219 131.246094 242.296875 128.648438 245.367188 134.226562 C 247.3125 137.855469 247.195312 143.578125 245.453125 150.660156 C 243.390625 159.042969 238.285156 165.0625 233.238281 165.621094 C 230.640625 177.75 225.625 188.402344 218.925781 196.515625 L 218.777344 197.402344 L 220.84375 206.875 L 220.667969 206.84375 C 220.84375 207.40625 221.023438 207.9375 221.167969 208.46875 L 221.257812 208.792969 C 221.964844 211.390625 222.644531 214.132812 223.234375 217.054688 C 227.335938 240.574219 218.925781 262.585938 209.011719 285.394531 C 203.523438 291.238281 195.289062 295.753906 187.796875 295.429688 C 180.183594 295.753906 171.773438 291.089844 166.3125 285.070312 C 157.078125 263.855469 149.199219 243.289062 151.558594 221.539062 C 152.265625 216.964844 153.269531 212.65625 154.363281 208.792969 L 154.777344 206.84375 L 156.8125 197.402344 C 149.757812 189.199219 144.449219 178.222656 141.792969 165.679688 C 136.449219 165.800781 130.816406 159.574219 128.632812 150.660156 C 126.859375 143.578125 126.742188 137.855469 128.71875 134.226562 C 132.082031 128.058594 138.105469 131.894531 140.492188 136.46875 C 142.707031 117.757812 150.644531 101.707031 161.769531 91.851562 C 169.824219 100.941406 179.355469 108.464844 191.898438 109.851562 C 215.886719 112.507812 228.574219 121.035156 234.359375 135.199219 Z M 234.359375 135.199219 " fill-opacity="1" fill-rule="nonzero"/><path fill="#e6c6aa" d="M 141.378906 163.675781 C 140.316406 158.777344 139.757812 153.820312 139.636719 148.832031 C 139.550781 145.617188 139.667969 142.429688 139.960938 139.210938 C 139.695312 138.859375 139.429688 138.503906 139.105469 138.148438 C 138.105469 137.058594 136.273438 135.640625 134.621094 135.757812 C 133.382812 135.878906 132.585938 136.882812 132.085938 137.824219 C 129.988281 141.601562 131.375 147.945312 132.496094 151.8125 C 133.472656 155.117188 135.183594 158.539062 137.691406 161.078125 C 138.664062 162.082031 139.960938 163.085938 141.378906 163.675781 Z M 233.328125 163.675781 C 234.390625 158.777344 234.949219 153.820312 235.066406 148.832031 C 235.15625 145.617188 235.039062 142.429688 234.742188 139.210938 C 235.007812 138.859375 235.273438 138.503906 235.597656 138.148438 C 236.601562 137.058594 238.429688 135.640625 240.082031 135.757812 C 241.324219 135.878906 242.121094 136.882812 242.652344 137.824219 C 244.714844 141.601562 243.328125 147.945312 242.207031 151.8125 C 241.234375 155.117188 239.523438 158.539062 237.015625 161.078125 C 236.042969 162.082031 234.773438 163.085938 233.328125 163.675781 Z M 233.328125 163.675781 " fill-opacity="1" fill-rule="nonzero"/><path fill="#e6c6aa" d="M 156.8125 197.402344 Z M 220.84375 206.875 L 218.777344 197.402344 L 218.925781 196.515625 C 210.546875 206.667969 199.539062 212.835938 187.5 212.835938 C 175.816406 212.835938 165.105469 207.023438 156.8125 197.402344 L 156.222656 200.085938 C 159.675781 204.75 163.628906 208.4375 168.023438 211.328125 C 173.957031 215.195312 180.65625 217.617188 187.972656 218.941406 C 195.554688 220.328125 203.789062 220.535156 212.433594 220.003906 C 214.675781 219.859375 214.324219 219.472656 214.914062 221.6875 C 222.082031 249.808594 209.867188 295.664062 166.578125 285.367188 C 172.039062 291.238281 180.300781 295.753906 187.796875 295.429688 C 195.289062 295.753906 203.523438 291.238281 209.011719 285.394531 C 219.753906 260.667969 229.757812 233.875 220.84375 206.875 Z M 220.84375 206.875 " fill-opacity="1" fill-rule="nonzero"/><path fill="#e6c6aa" d="M 234.359375 135.199219 C 228.574219 121.035156 215.886719 112.507812 191.898438 109.851562 C 179.355469 108.464844 169.824219 100.941406 161.769531 91.851562 C 150.644531 101.707031 142.707031 117.757812 140.492188 136.4375 C 146.898438 123.21875 151.941406 108.050781 161.445312 98.726562 C 173.777344 127.910156 215.710938 109.617188 234.359375 135.199219 Z M 234.359375 135.199219 " fill-opacity="1" fill-rule="nonzero"/><path fill="#383032" d="M 238.019531 226.113281 C 239.492188 229.328125 240.761719 232.636719 241.765625 236.027344 C 242.769531 239.421875 243.507812 242.933594 243.949219 246.535156 C 244.066406 247.535156 244.214844 248.097656 244.1875 248.628906 C 244.1875 249.128906 243.980469 249.632812 243.417969 250.457031 C 242.296875 252.167969 240.96875 253.734375 239.40625 255.238281 C 237.839844 256.714844 236.070312 258.101562 234.125 259.429688 L 241.144531 266.921875 L 248.199219 274.417969 L 217.953125 313.015625 L 187.738281 351.613281 L 127.246094 274.417969 L 134.296875 266.921875 L 141.320312 259.429688 C 139.371094 258.101562 137.601562 256.714844 136.039062 255.238281 C 134.503906 253.734375 133.144531 252.167969 132.023438 250.457031 C 131.464844 249.632812 131.257812 249.128906 131.257812 248.628906 C 131.226562 248.097656 131.375 247.535156 131.492188 246.53125 C 131.9375 242.933594 132.675781 239.421875 133.675781 236.027344 C 134.679688 232.636719 135.949219 229.328125 137.425781 226.113281 C 139.609375 222.128906 142.085938 218.5 144.980469 215.253906 C 147.839844 212.007812 151.085938 209.207031 154.777344 206.84375 C 147.015625 230.332031 152.800781 252.109375 161.738281 274.242188 C 170.679688 296.402344 182.808594 318.945312 187.738281 344.027344 C 192.636719 318.945312 204.792969 296.402344 213.792969 274.269531 C 222.792969 252.109375 228.605469 230.363281 220.84375 206.875 C 224.445312 209.648438 227.660156 212.597656 230.523438 215.816406 C 233.386719 219.003906 235.894531 222.425781 238.019531 226.113281 Z M 238.019531 226.113281 " fill-opacity="1" fill-rule="nonzero"/><path fill="#ffffff" d="M 187.738281 344.027344 C 191.808594 323.136719 200.898438 304.015625 209.011719 285.394531 C 203.523438 291.238281 195.289062 295.753906 187.796875 295.429688 C 180.300781 295.753906 172.039062 291.238281 166.578125 285.367188 C 166.492188 285.277344 166.402344 285.160156 166.3125 285.070312 C 174.429688 303.777344 183.605469 323.019531 187.738281 344.027344 Z M 187.738281 344.027344 " fill-opacity="1" fill-rule="nonzero"/></svg>