<svg xmlns="http://www.w3.org/2000/svg" xmlns:xlink="http://www.w3.org/1999/xlink" width="500" zoomAndPan="magnify" viewBox="0 0 375 374.999991" height="500" preserveAspectRatio="xMidYMid meet" version="1.0"><defs><g/><clipPath id="23f91a7a95"><path d="M 160 157.058594 L 262.5 157.058594 L 262.5 222 L 160 222 Z M 160 157.058594 " clip-rule="nonzero"/></clipPath><clipPath id="84f0b31f8a"><path d="M 174 224 L 198 224 L 198 247.058594 L 174 247.058594 Z M 174 224 " clip-rule="nonzero"/></clipPath><clipPath id="d5a129fb45"><path d="M 207 224 L 230 224 L 230 247.058594 L 207 247.058594 Z M 207 224 " clip-rule="nonzero"/></clipPath><clipPath id="aaaa6c38aa"><path d="M 112.5 196 L 172 196 L 172 203 L 112.5 203 Z M 112.5 196 " clip-rule="nonzero"/></clipPath></defs><g clip-path="url(#23f91a7a95)"><path fill="#ff9e01" d="M 262.5 174.648438 L 252.128906 217.816406 C 252.128906 218.230469 252.046875 218.628906 251.886719 219.011719 C 251.730469 219.394531 251.503906 219.734375 251.210938 220.027344 C 250.917969 220.320312 250.582031 220.546875 250.199219 220.703125 C 249.816406 220.863281 249.417969 220.945312 249.003906 220.945312 L 179.121094 221.453125 C 178.710938 221.453125 178.3125 221.371094 177.929688 221.210938 C 177.546875 221.054688 177.210938 220.828125 176.917969 220.535156 C 176.625 220.242188 176.398438 219.902344 176.238281 219.519531 C 176.082031 219.136719 176 218.738281 176 218.324219 L 176 174.644531 C 176 174.558594 176.003906 174.472656 176.011719 174.386719 L 175.066406 165.9375 L 164.734375 165.9375 C 164.164062 165.914062 163.617188 165.785156 163.097656 165.550781 C 162.574219 165.316406 162.117188 164.992188 161.71875 164.578125 C 161.324219 164.164062 161.019531 163.691406 160.804688 163.160156 C 160.589844 162.628906 160.484375 162.078125 160.484375 161.503906 C 160.484375 160.929688 160.589844 160.378906 160.804688 159.847656 C 161.019531 159.316406 161.324219 158.84375 161.71875 158.429688 C 162.117188 158.015625 162.574219 157.691406 163.097656 157.457031 C 163.617188 157.222656 164.164062 157.09375 164.734375 157.070312 L 182.96875 157.070312 C 182.972656 157.085938 182.972656 157.101562 182.96875 157.117188 L 183.957031 165.941406 L 184.582031 171.519531 L 259.375 171.519531 C 259.789062 171.519531 260.1875 171.597656 260.570312 171.757812 C 260.953125 171.917969 261.289062 172.144531 261.582031 172.4375 C 261.875 172.730469 262.101562 173.070312 262.261719 173.453125 C 262.417969 173.835938 262.5 174.234375 262.5 174.648438 Z M 262.5 174.648438 " fill-opacity="1" fill-rule="nonzero"/></g><g clip-path="url(#84f0b31f8a)"><path fill="#ff7312" d="M 197.742188 235.648438 C 197.742188 236.398438 197.671875 237.140625 197.523438 237.875 C 197.378906 238.609375 197.164062 239.320312 196.878906 240.011719 C 196.589844 240.707031 196.242188 241.363281 195.824219 241.984375 C 195.410156 242.609375 194.9375 243.183594 194.410156 243.714844 C 193.882812 244.242188 193.308594 244.714844 192.683594 245.132812 C 192.0625 245.546875 191.40625 245.898438 190.71875 246.1875 C 190.027344 246.472656 189.316406 246.6875 188.582031 246.835938 C 187.847656 246.980469 187.109375 247.054688 186.363281 247.054688 C 185.613281 247.054688 184.875 246.980469 184.140625 246.835938 C 183.40625 246.6875 182.695312 246.472656 182.007812 246.1875 C 181.316406 245.898438 180.660156 245.546875 180.039062 245.132812 C 179.417969 244.714844 178.839844 244.242188 178.3125 243.714844 C 177.785156 243.183594 177.3125 242.609375 176.898438 241.984375 C 176.484375 241.363281 176.132812 240.707031 175.847656 240.011719 C 175.558594 239.320312 175.34375 238.609375 175.199219 237.875 C 175.050781 237.140625 174.980469 236.398438 174.980469 235.648438 C 174.980469 234.898438 175.050781 234.15625 175.199219 233.421875 C 175.34375 232.6875 175.558594 231.976562 175.847656 231.285156 C 176.132812 230.589844 176.484375 229.933594 176.898438 229.3125 C 177.3125 228.6875 177.785156 228.113281 178.3125 227.582031 C 178.839844 227.054688 179.417969 226.582031 180.039062 226.164062 C 180.660156 225.75 181.316406 225.398438 182.007812 225.109375 C 182.695312 224.824219 183.40625 224.605469 184.140625 224.460938 C 184.875 224.316406 185.613281 224.242188 186.363281 224.242188 C 187.109375 224.242188 187.847656 224.316406 188.582031 224.460938 C 189.316406 224.605469 190.027344 224.824219 190.71875 225.109375 C 191.40625 225.398438 192.0625 225.75 192.683594 226.164062 C 193.308594 226.582031 193.882812 227.054688 194.410156 227.582031 C 194.9375 228.113281 195.410156 228.6875 195.824219 229.3125 C 196.242188 229.933594 196.589844 230.589844 196.878906 231.285156 C 197.164062 231.976562 197.378906 232.6875 197.523438 233.421875 C 197.671875 234.15625 197.742188 234.898438 197.742188 235.648438 Z M 197.742188 235.648438 " fill-opacity="1" fill-rule="nonzero"/></g><g clip-path="url(#d5a129fb45)"><path fill="#ff7312" d="M 229.867188 235.648438 C 229.867188 236.398438 229.796875 237.140625 229.648438 237.875 C 229.503906 238.609375 229.289062 239.320312 229.003906 240.011719 C 228.714844 240.707031 228.367188 241.363281 227.949219 241.984375 C 227.535156 242.609375 227.0625 243.183594 226.535156 243.714844 C 226.007812 244.242188 225.429688 244.714844 224.808594 245.132812 C 224.1875 245.546875 223.53125 245.898438 222.84375 246.1875 C 222.152344 246.472656 221.441406 246.6875 220.707031 246.835938 C 219.972656 246.980469 219.234375 247.054688 218.488281 247.054688 C 217.738281 247.054688 217 246.980469 216.265625 246.835938 C 215.53125 246.6875 214.820312 246.472656 214.128906 246.1875 C 213.441406 245.898438 212.785156 245.546875 212.164062 245.132812 C 211.542969 244.714844 210.964844 244.242188 210.4375 243.714844 C 209.910156 243.183594 209.4375 242.609375 209.023438 241.984375 C 208.605469 241.363281 208.257812 240.707031 207.96875 240.011719 C 207.683594 239.320312 207.46875 238.609375 207.324219 237.875 C 207.175781 237.140625 207.105469 236.398438 207.105469 235.648438 C 207.105469 234.898438 207.175781 234.15625 207.324219 233.421875 C 207.46875 232.6875 207.683594 231.976562 207.96875 231.285156 C 208.257812 230.589844 208.605469 229.933594 209.023438 229.3125 C 209.4375 228.6875 209.910156 228.113281 210.4375 227.582031 C 210.964844 227.054688 211.542969 226.582031 212.164062 226.164062 C 212.785156 225.75 213.441406 225.398438 214.128906 225.109375 C 214.820312 224.824219 215.53125 224.605469 216.265625 224.460938 C 217 224.316406 217.738281 224.242188 218.488281 224.242188 C 219.234375 224.242188 219.972656 224.316406 220.707031 224.460938 C 221.441406 224.605469 222.152344 224.824219 222.84375 225.109375 C 223.53125 225.398438 224.1875 225.75 224.808594 226.164062 C 225.429688 226.582031 226.007812 227.054688 226.535156 227.582031 C 227.0625 228.113281 227.535156 228.6875 227.949219 229.3125 C 228.367188 229.933594 228.714844 230.589844 229.003906 231.285156 C 229.289062 231.976562 229.503906 232.6875 229.648438 233.421875 C 229.796875 234.15625 229.867188 234.898438 229.867188 235.648438 Z M 229.867188 235.648438 " fill-opacity="1" fill-rule="nonzero"/></g><path fill="#ff9e01" d="M 142.347656 175.320312 L 168.402344 175.320312 C 168.804688 175.320312 169.191406 175.398438 169.5625 175.550781 C 169.9375 175.707031 170.265625 175.925781 170.546875 176.210938 C 170.832031 176.496094 171.050781 176.824219 171.207031 177.199219 C 171.359375 177.570312 171.4375 177.957031 171.4375 178.359375 L 171.4375 179.121094 C 171.4375 179.523438 171.359375 179.914062 171.207031 180.285156 C 171.050781 180.660156 170.832031 180.988281 170.546875 181.273438 C 170.265625 181.558594 169.9375 181.777344 169.5625 181.933594 C 169.191406 182.085938 168.804688 182.164062 168.402344 182.164062 L 142.347656 182.164062 C 141.945312 182.164062 141.558594 182.085938 141.1875 181.933594 C 140.816406 181.777344 140.488281 181.558594 140.203125 181.273438 C 139.917969 180.988281 139.699219 180.660156 139.542969 180.285156 C 139.390625 179.914062 139.3125 179.523438 139.3125 179.121094 L 139.3125 178.359375 C 139.3125 177.957031 139.390625 177.570312 139.542969 177.199219 C 139.699219 176.824219 139.917969 176.496094 140.203125 176.210938 C 140.488281 175.925781 140.816406 175.707031 141.1875 175.550781 C 141.558594 175.398438 141.945312 175.320312 142.347656 175.320312 Z M 142.347656 175.320312 " fill-opacity="1" fill-rule="nonzero"/><path fill="#ff9e01" d="M 142.347656 217.902344 L 168.402344 217.902344 C 168.804688 217.902344 169.191406 217.980469 169.5625 218.136719 C 169.9375 218.289062 170.265625 218.511719 170.546875 218.796875 C 170.832031 219.082031 171.050781 219.410156 171.207031 219.78125 C 171.359375 220.15625 171.4375 220.542969 171.4375 220.945312 L 171.4375 221.707031 C 171.4375 222.109375 171.359375 222.496094 171.207031 222.871094 C 171.050781 223.242188 170.832031 223.570312 170.546875 223.855469 C 170.265625 224.140625 169.9375 224.363281 169.5625 224.515625 C 169.191406 224.671875 168.804688 224.746094 168.402344 224.746094 L 142.347656 224.746094 C 141.945312 224.746094 141.558594 224.671875 141.1875 224.515625 C 140.816406 224.363281 140.488281 224.140625 140.203125 223.855469 C 139.917969 223.570312 139.699219 223.242188 139.542969 222.871094 C 139.390625 222.496094 139.3125 222.109375 139.3125 221.707031 L 139.3125 220.945312 C 139.3125 220.542969 139.390625 220.15625 139.542969 219.78125 C 139.699219 219.410156 139.917969 219.082031 140.203125 218.796875 C 140.488281 218.511719 140.816406 218.289062 141.1875 218.136719 C 141.558594 217.980469 141.945312 217.902344 142.347656 217.902344 Z M 142.347656 217.902344 " fill-opacity="1" fill-rule="nonzero"/><g clip-path="url(#aaaa6c38aa)"><path fill="#ff9e01" d="M 115.914062 196.105469 L 168.023438 196.105469 C 168.476562 196.105469 168.910156 196.191406 169.328125 196.367188 C 169.746094 196.539062 170.117188 196.785156 170.4375 197.109375 C 170.757812 197.429688 171.003906 197.796875 171.175781 198.21875 C 171.351562 198.636719 171.4375 199.074219 171.4375 199.527344 C 171.4375 199.980469 171.351562 200.417969 171.175781 200.835938 C 171.003906 201.253906 170.757812 201.625 170.4375 201.945312 C 170.117188 202.265625 169.746094 202.515625 169.328125 202.6875 C 168.910156 202.863281 168.476562 202.949219 168.023438 202.949219 L 115.914062 202.949219 C 115.460938 202.949219 115.027344 202.863281 114.609375 202.6875 C 114.191406 202.515625 113.820312 202.265625 113.5 201.945312 C 113.179688 201.625 112.933594 201.253906 112.761719 200.835938 C 112.585938 200.417969 112.5 199.980469 112.5 199.527344 C 112.5 199.074219 112.585938 198.636719 112.761719 198.21875 C 112.933594 197.796875 113.179688 197.429688 113.5 197.109375 C 113.820312 196.785156 114.191406 196.539062 114.609375 196.367188 C 115.027344 196.191406 115.460938 196.105469 115.914062 196.105469 Z M 115.914062 196.105469 " fill-opacity="1" fill-rule="nonzero"/></g><g fill="#ffffff" fill-opacity="1"><g transform="translate(182.702659, 171.600853)"><g><path d="M 9.1875 0.28125 C 7.726562 0.28125 6.441406 0.00390625 5.328125 -0.546875 C 4.210938 -1.109375 3.335938 -1.941406 2.703125 -3.046875 C 2.078125 -4.148438 1.765625 -5.492188 1.765625 -7.078125 C 1.765625 -7.992188 1.875 -8.972656 2.09375 -10.015625 C 2.53125 -12.085938 3.257812 -13.832031 4.28125 -15.25 C 5.3125 -16.675781 6.570312 -17.75 8.0625 -18.46875 C 9.5625 -19.1875 11.253906 -19.546875 13.140625 -19.546875 C 14.929688 -19.546875 16.390625 -19.164062 17.515625 -18.40625 C 18.640625 -17.65625 19.367188 -16.566406 19.703125 -15.140625 L 16.703125 -13.53125 L 16.390625 -13.546875 C 16.097656 -14.460938 15.640625 -15.144531 15.015625 -15.59375 C 14.390625 -16.039062 13.53125 -16.265625 12.4375 -16.265625 C 10.84375 -16.265625 9.484375 -15.738281 8.359375 -14.6875 C 7.242188 -13.644531 6.453125 -12.015625 5.984375 -9.796875 C 5.773438 -8.804688 5.671875 -7.9375 5.671875 -7.1875 C 5.671875 -5.738281 6.015625 -4.679688 6.703125 -4.015625 C 7.398438 -3.347656 8.375 -3.015625 9.625 -3.015625 C 10.6875 -3.015625 11.640625 -3.3125 12.484375 -3.90625 C 13.328125 -4.507812 14.082031 -5.4375 14.75 -6.6875 L 15.09375 -6.6875 L 17.828125 -5.203125 C 17.265625 -3.890625 16.585938 -2.832031 15.796875 -2.03125 C 15.003906 -1.238281 14.070312 -0.65625 13 -0.28125 C 11.925781 0.09375 10.65625 0.28125 9.1875 0.28125 Z M 9.1875 0.28125 "/></g></g></g><g fill="#ffffff" fill-opacity="1"><g transform="translate(201.59152, 171.600853)"><g><path d="M 0.546875 0 L 4.875 -20.375 L 8.53125 -20.375 L 6.890625 -12.640625 L 7.15625 -12.578125 C 8.3125 -14.066406 9.863281 -14.8125 11.8125 -14.8125 C 13.0625 -14.8125 14.03125 -14.453125 14.71875 -13.734375 C 15.40625 -13.015625 15.75 -12.035156 15.75 -10.796875 C 15.75 -10.265625 15.679688 -9.695312 15.546875 -9.09375 L 13.609375 0 L 9.96875 0 L 11.84375 -8.890625 C 11.914062 -9.242188 11.953125 -9.546875 11.953125 -9.796875 C 11.953125 -10.429688 11.773438 -10.910156 11.421875 -11.234375 C 11.066406 -11.566406 10.546875 -11.734375 9.859375 -11.734375 C 8.859375 -11.734375 8.007812 -11.394531 7.3125 -10.71875 C 6.613281 -10.039062 6.109375 -8.976562 5.796875 -7.53125 L 4.203125 0 Z M 0.546875 0 "/></g></g></g><g fill="#ffffff" fill-opacity="1"><g transform="translate(218.623109, 171.600853)"><g><path d="M 5.78125 0.28125 C 4.925781 0.28125 4.144531 0.0820312 3.4375 -0.3125 C 2.726562 -0.707031 2.160156 -1.3125 1.734375 -2.125 C 1.304688 -2.9375 1.09375 -3.941406 1.09375 -5.140625 C 1.09375 -5.910156 1.191406 -6.75 1.390625 -7.65625 C 1.890625 -10 2.773438 -11.773438 4.046875 -12.984375 C 5.316406 -14.203125 6.894531 -14.8125 8.78125 -14.8125 C 9.695312 -14.8125 10.484375 -14.648438 11.140625 -14.328125 C 11.796875 -14.015625 12.28125 -13.535156 12.59375 -12.890625 L 12.890625 -12.953125 L 13.21875 -14.546875 L 16.859375 -14.546875 L 13.78125 0 L 10.125 0 L 10.53125 -1.890625 L 10.265625 -1.9375 C 9.703125 -1.226562 9.0625 -0.679688 8.34375 -0.296875 C 7.625 0.0859375 6.769531 0.28125 5.78125 0.28125 Z M 7.421875 -2.8125 C 8.441406 -2.8125 9.328125 -3.164062 10.078125 -3.875 C 10.835938 -4.582031 11.359375 -5.625 11.640625 -7 C 11.773438 -7.644531 11.84375 -8.210938 11.84375 -8.703125 C 11.84375 -9.703125 11.613281 -10.453125 11.15625 -10.953125 C 10.695312 -11.460938 10.082031 -11.71875 9.3125 -11.71875 C 8.238281 -11.71875 7.34375 -11.367188 6.625 -10.671875 C 5.914062 -9.972656 5.40625 -8.90625 5.09375 -7.46875 C 4.96875 -6.832031 4.90625 -6.257812 4.90625 -5.75 C 4.90625 -4.789062 5.125 -4.0625 5.5625 -3.5625 C 6 -3.0625 6.617188 -2.8125 7.421875 -2.8125 Z M 7.421875 -2.8125 "/></g></g></g><g fill="#ffffff" fill-opacity="1"><g transform="translate(236.036689, 171.600853)"><g><path d="M 0.546875 0 L 3.640625 -14.53125 L 7.1875 -14.53125 L 6.71875 -12.375 L 6.984375 -12.3125 C 7.492188 -13.144531 8.0625 -13.742188 8.6875 -14.109375 C 9.3125 -14.484375 10.066406 -14.671875 10.953125 -14.671875 C 11.347656 -14.671875 11.703125 -14.632812 12.015625 -14.5625 C 12.328125 -14.488281 12.566406 -14.382812 12.734375 -14.25 L 11.5625 -11.046875 L 11.265625 -11 C 10.796875 -11.207031 10.285156 -11.3125 9.734375 -11.3125 C 7.640625 -11.3125 6.273438 -9.804688 5.640625 -6.796875 L 4.203125 0 Z M 0.546875 0 "/></g></g></g><g fill="#ffffff" fill-opacity="1"><g transform="translate(247.430598, 171.600853)"><g><path d="M 0.546875 0 L 3.640625 -14.53125 L 7.140625 -14.53125 L 6.734375 -12.578125 L 7 -12.53125 C 7.488281 -13.289062 8.09375 -13.859375 8.8125 -14.234375 C 9.539062 -14.617188 10.410156 -14.8125 11.421875 -14.8125 C 13.472656 -14.8125 14.71875 -13.957031 15.15625 -12.25 L 15.421875 -12.25 C 15.984375 -13.132812 16.640625 -13.78125 17.390625 -14.1875 C 18.140625 -14.601562 19.035156 -14.8125 20.078125 -14.8125 C 21.347656 -14.8125 22.304688 -14.484375 22.953125 -13.828125 C 23.597656 -13.171875 23.921875 -12.253906 23.921875 -11.078125 C 23.921875 -10.554688 23.851562 -9.988281 23.71875 -9.375 L 21.734375 0 L 18.078125 0 L 20.046875 -9.3125 C 20.109375 -9.59375 20.140625 -9.863281 20.140625 -10.125 C 20.140625 -11.195312 19.535156 -11.734375 18.328125 -11.734375 C 17.398438 -11.734375 16.617188 -11.414062 15.984375 -10.78125 C 15.359375 -10.144531 14.894531 -9.117188 14.59375 -7.703125 L 12.96875 0 L 9.3125 0 L 11.296875 -9.3125 C 11.359375 -9.59375 11.390625 -9.863281 11.390625 -10.125 C 11.390625 -11.195312 10.773438 -11.734375 9.546875 -11.734375 C 8.628906 -11.734375 7.851562 -11.421875 7.21875 -10.796875 C 6.59375 -10.171875 6.132812 -9.164062 5.84375 -7.78125 L 4.203125 0 Z M 0.546875 0 "/></g></g></g><g fill="#ff3131" fill-opacity="1"><g transform="translate(182.702659, 203.704602)"><g><path d="M 9.1875 0.28125 C 7.726562 0.28125 6.441406 0.00390625 5.328125 -0.546875 C 4.210938 -1.109375 3.335938 -1.941406 2.703125 -3.046875 C 2.078125 -4.148438 1.765625 -5.492188 1.765625 -7.078125 C 1.765625 -7.992188 1.875 -8.972656 2.09375 -10.015625 C 2.53125 -12.085938 3.257812 -13.832031 4.28125 -15.25 C 5.3125 -16.675781 6.570312 -17.75 8.0625 -18.46875 C 9.5625 -19.1875 11.253906 -19.546875 13.140625 -19.546875 C 14.929688 -19.546875 16.390625 -19.164062 17.515625 -18.40625 C 18.640625 -17.65625 19.367188 -16.566406 19.703125 -15.140625 L 16.703125 -13.53125 L 16.390625 -13.546875 C 16.097656 -14.460938 15.640625 -15.144531 15.015625 -15.59375 C 14.390625 -16.039062 13.53125 -16.265625 12.4375 -16.265625 C 10.84375 -16.265625 9.484375 -15.738281 8.359375 -14.6875 C 7.242188 -13.644531 6.453125 -12.015625 5.984375 -9.796875 C 5.773438 -8.804688 5.671875 -7.9375 5.671875 -7.1875 C 5.671875 -5.738281 6.015625 -4.679688 6.703125 -4.015625 C 7.398438 -3.347656 8.375 -3.015625 9.625 -3.015625 C 10.6875 -3.015625 11.640625 -3.3125 12.484375 -3.90625 C 13.328125 -4.507812 14.082031 -5.4375 14.75 -6.6875 L 15.09375 -6.6875 L 17.828125 -5.203125 C 17.265625 -3.890625 16.585938 -2.832031 15.796875 -2.03125 C 15.003906 -1.238281 14.070312 -0.65625 13 -0.28125 C 11.925781 0.09375 10.65625 0.28125 9.1875 0.28125 Z M 9.1875 0.28125 "/></g></g></g><g fill="#ff3131" fill-opacity="1"><g transform="translate(201.59152, 203.704602)"><g><path d="M 5.78125 0.28125 C 4.925781 0.28125 4.144531 0.0820312 3.4375 -0.3125 C 2.726562 -0.707031 2.160156 -1.3125 1.734375 -2.125 C 1.304688 -2.9375 1.09375 -3.941406 1.09375 -5.140625 C 1.09375 -5.910156 1.191406 -6.75 1.390625 -7.65625 C 1.890625 -10 2.773438 -11.773438 4.046875 -12.984375 C 5.316406 -14.203125 6.894531 -14.8125 8.78125 -14.8125 C 9.695312 -14.8125 10.484375 -14.648438 11.140625 -14.328125 C 11.796875 -14.015625 12.28125 -13.535156 12.59375 -12.890625 L 12.890625 -12.953125 L 13.21875 -14.546875 L 16.859375 -14.546875 L 13.78125 0 L 10.125 0 L 10.53125 -1.890625 L 10.265625 -1.9375 C 9.703125 -1.226562 9.0625 -0.679688 8.34375 -0.296875 C 7.625 0.0859375 6.769531 0.28125 5.78125 0.28125 Z M 7.421875 -2.8125 C 8.441406 -2.8125 9.328125 -3.164062 10.078125 -3.875 C 10.835938 -4.582031 11.359375 -5.625 11.640625 -7 C 11.773438 -7.644531 11.84375 -8.210938 11.84375 -8.703125 C 11.84375 -9.703125 11.613281 -10.453125 11.15625 -10.953125 C 10.695312 -11.460938 10.082031 -11.71875 9.3125 -11.71875 C 8.238281 -11.71875 7.34375 -11.367188 6.625 -10.671875 C 5.914062 -9.972656 5.40625 -8.90625 5.09375 -7.46875 C 4.96875 -6.832031 4.90625 -6.257812 4.90625 -5.75 C 4.90625 -4.789062 5.125 -4.0625 5.5625 -3.5625 C 6 -3.0625 6.617188 -2.8125 7.421875 -2.8125 Z M 7.421875 -2.8125 "/></g></g></g><g fill="#ff3131" fill-opacity="1"><g transform="translate(219.005101, 203.704602)"><g><path d="M 0.546875 0 L 3.640625 -14.53125 L 7.1875 -14.53125 L 6.71875 -12.375 L 6.984375 -12.3125 C 7.492188 -13.144531 8.0625 -13.742188 8.6875 -14.109375 C 9.3125 -14.484375 10.066406 -14.671875 10.953125 -14.671875 C 11.347656 -14.671875 11.703125 -14.632812 12.015625 -14.5625 C 12.328125 -14.488281 12.566406 -14.382812 12.734375 -14.25 L 11.5625 -11.046875 L 11.265625 -11 C 10.796875 -11.207031 10.285156 -11.3125 9.734375 -11.3125 C 7.640625 -11.3125 6.273438 -9.804688 5.640625 -6.796875 L 4.203125 0 Z M 0.546875 0 "/></g></g></g><g fill="#ff3131" fill-opacity="1"><g transform="translate(230.399009, 203.704602)"><g><path d="M 7.234375 -11.640625 L 5.828125 -5 C 5.773438 -4.757812 5.75 -4.535156 5.75 -4.328125 C 5.75 -3.878906 5.867188 -3.535156 6.109375 -3.296875 C 6.347656 -3.054688 6.691406 -2.9375 7.140625 -2.9375 C 7.453125 -2.9375 7.742188 -2.976562 8.015625 -3.0625 C 8.296875 -3.15625 8.578125 -3.289062 8.859375 -3.46875 L 9.125 -3.46875 L 9.625 -0.765625 C 9.175781 -0.421875 8.6875 -0.160156 8.15625 0.015625 C 7.625 0.191406 6.929688 0.28125 6.078125 0.28125 C 5.273438 0.28125 4.570312 0.140625 3.96875 -0.140625 C 3.363281 -0.429688 2.890625 -0.863281 2.546875 -1.4375 C 2.203125 -2.019531 2.03125 -2.734375 2.03125 -3.578125 C 2.03125 -4.078125 2.085938 -4.597656 2.203125 -5.140625 L 3.578125 -11.640625 L 1.375 -11.640625 L 1.984375 -14.546875 L 4.203125 -14.546875 L 4.8125 -17.375 L 8.578125 -17.96875 L 7.859375 -14.546875 L 11.984375 -14.546875 L 11.359375 -11.640625 Z M 7.234375 -11.640625 "/></g></g></g></svg>