<svg xmlns="http://www.w3.org/2000/svg" xmlns:xlink="http://www.w3.org/1999/xlink" width="500" zoomAndPan="magnify" viewBox="0 0 375 374.999991" height="500" preserveAspectRatio="xMidYMid meet" version="1.0"><defs><g/><clipPath id="2d597b86e0"><path d="M 174.035156 135.058594 L 199.535156 135.058594 L 199.535156 168 L 174.035156 168 Z M 174.035156 135.058594 " clip-rule="nonzero"/></clipPath><clipPath id="85a54fec93"><path d="M 199.832031 135.058594 L 225.332031 135.058594 L 225.332031 168 L 199.832031 168 Z M 199.832031 135.058594 " clip-rule="nonzero"/></clipPath><clipPath id="1a956a1618"><path d="M 225.625 135.058594 L 251.125 135.058594 L 251.125 168 L 225.625 168 Z M 225.625 135.058594 " clip-rule="nonzero"/></clipPath><clipPath id="6dd8388b47"><path d="M 149 149.144531 L 251.417969 149.144531 L 251.417969 214 L 149 214 Z M 149 149.144531 " clip-rule="nonzero"/></clipPath><clipPath id="606e4ff1f7"><path d="M 163 216 L 187 216 L 187 239.144531 L 163 239.144531 Z M 163 216 " clip-rule="nonzero"/></clipPath><clipPath id="52f758ca93"><path d="M 196 216 L 219 216 L 219 239.144531 L 196 239.144531 Z M 196 216 " clip-rule="nonzero"/></clipPath><clipPath id="4031c53e6b"><path d="M 101.417969 188 L 161 188 L 161 196 L 101.417969 196 Z M 101.417969 188 " clip-rule="nonzero"/></clipPath></defs><g clip-path="url(#2d597b86e0)"><path fill="#ffffff" d="M 197.199219 143.035156 L 192.425781 143.035156 L 192.425781 144.679688 C 192.730469 144.882812 192.832031 145.191406 192.832031 145.601562 C 192.832031 146.21875 192.324219 146.730469 191.714844 146.730469 C 191.105469 146.730469 190.597656 146.21875 190.597656 145.601562 C 190.597656 145.191406 190.800781 144.882812 191.003906 144.679688 L 191.003906 143.035156 L 182.367188 143.035156 L 182.367188 144.679688 C 182.671875 144.882812 182.773438 145.191406 182.773438 145.601562 C 182.773438 146.21875 182.265625 146.730469 181.65625 146.730469 C 181.046875 146.730469 180.539062 146.21875 180.539062 145.601562 C 180.539062 145.191406 180.742188 144.882812 180.945312 144.679688 L 180.945312 143.035156 L 176.472656 143.035156 L 174.035156 167.996094 L 199.535156 167.996094 Z M 186.835938 160.703125 C 181.554688 158.238281 179.726562 154.027344 181.554688 151.664062 C 183.382812 149.300781 186.835938 150.738281 186.835938 153.101562 C 186.835938 150.738281 190.394531 149.300781 192.121094 151.664062 C 193.949219 154.027344 192.121094 158.238281 186.835938 160.703125 Z M 181.65625 145.808594 C 181.554688 145.703125 181.554688 145.703125 181.554688 145.601562 L 181.554688 140.261719 C 181.554688 138.925781 182.164062 137.589844 183.078125 136.664062 C 183.992188 135.636719 185.3125 135.125 186.632812 135.125 L 187.039062 135.125 C 188.359375 135.125 189.679688 135.636719 190.597656 136.664062 C 191.613281 137.589844 192.121094 138.925781 192.121094 140.261719 L 192.121094 145.601562 C 192.121094 145.703125 192.019531 145.808594 192.019531 145.808594 C 191.917969 145.910156 191.917969 145.910156 191.816406 145.910156 C 191.714844 145.910156 191.613281 145.808594 191.613281 145.808594 C 191.511719 145.703125 191.511719 145.703125 191.511719 145.601562 L 191.511719 140.261719 C 191.511719 139.027344 191.003906 137.898438 190.191406 137.078125 C 189.375 136.253906 188.257812 135.742188 187.039062 135.742188 L 186.632812 135.742188 C 185.414062 135.742188 184.296875 136.253906 183.484375 137.078125 C 182.671875 137.898438 182.164062 139.027344 182.164062 140.261719 L 182.164062 145.601562 C 182.164062 145.703125 182.0625 145.808594 182.0625 145.808594 C 181.960938 145.910156 181.960938 145.910156 181.859375 145.910156 C 181.757812 145.910156 181.65625 145.808594 181.65625 145.808594 Z M 181.65625 145.808594 " fill-opacity="1" fill-rule="nonzero"/></g><g clip-path="url(#85a54fec93)"><path fill="#ffffff" d="M 222.992188 143.035156 L 218.21875 143.035156 L 218.21875 144.679688 C 218.523438 144.882812 218.625 145.191406 218.625 145.601562 C 218.625 146.21875 218.117188 146.730469 217.507812 146.730469 C 216.898438 146.730469 216.390625 146.21875 216.390625 145.601562 C 216.390625 145.191406 216.59375 144.882812 216.796875 144.679688 L 216.796875 143.035156 L 208.160156 143.035156 L 208.160156 144.679688 C 208.464844 144.882812 208.566406 145.191406 208.566406 145.601562 C 208.566406 146.21875 208.058594 146.730469 207.449219 146.730469 C 206.839844 146.730469 206.332031 146.21875 206.332031 145.601562 C 206.332031 145.191406 206.535156 144.882812 206.738281 144.679688 L 206.738281 143.035156 L 202.269531 143.035156 L 199.832031 167.996094 L 225.332031 167.996094 Z M 212.632812 160.703125 C 207.347656 158.238281 205.519531 154.027344 207.347656 151.664062 C 209.175781 149.300781 212.632812 150.738281 212.632812 153.101562 C 212.632812 150.738281 216.1875 149.300781 217.914062 151.664062 C 219.742188 154.027344 217.914062 158.238281 212.632812 160.703125 Z M 207.449219 145.808594 C 207.347656 145.703125 207.347656 145.703125 207.347656 145.601562 L 207.347656 140.261719 C 207.347656 138.925781 207.957031 137.589844 208.871094 136.664062 C 209.785156 135.636719 211.105469 135.125 212.429688 135.125 L 212.835938 135.125 C 214.15625 135.125 215.476562 135.636719 216.390625 136.664062 C 217.40625 137.589844 217.914062 138.925781 217.914062 140.261719 L 217.914062 145.601562 C 217.914062 145.703125 217.8125 145.808594 217.8125 145.808594 C 217.710938 145.910156 217.710938 145.910156 217.609375 145.910156 C 217.507812 145.910156 217.40625 145.808594 217.40625 145.808594 C 217.304688 145.703125 217.304688 145.703125 217.304688 145.601562 L 217.304688 140.261719 C 217.304688 139.027344 216.796875 137.898438 215.984375 137.078125 C 215.171875 136.253906 214.054688 135.742188 212.835938 135.742188 L 212.429688 135.742188 C 211.207031 135.742188 210.089844 136.253906 209.277344 137.078125 C 208.464844 137.898438 207.957031 139.027344 207.957031 140.261719 L 207.957031 145.601562 C 207.957031 145.703125 207.855469 145.808594 207.855469 145.808594 C 207.753906 145.910156 207.753906 145.910156 207.652344 145.910156 C 207.550781 145.910156 207.449219 145.808594 207.449219 145.808594 Z M 207.449219 145.808594 " fill-opacity="1" fill-rule="nonzero"/></g><g clip-path="url(#1a956a1618)"><path fill="#ffffff" d="M 248.789062 143.035156 L 244.011719 143.035156 L 244.011719 144.679688 C 244.316406 144.882812 244.417969 145.191406 244.417969 145.601562 C 244.417969 146.21875 243.910156 146.730469 243.300781 146.730469 C 242.691406 146.730469 242.183594 146.21875 242.183594 145.601562 C 242.183594 145.191406 242.386719 144.882812 242.589844 144.679688 L 242.589844 143.035156 L 233.957031 143.035156 L 233.957031 144.679688 C 234.261719 144.882812 234.363281 145.191406 234.363281 145.601562 C 234.363281 146.21875 233.855469 146.730469 233.246094 146.730469 C 232.632812 146.730469 232.125 146.21875 232.125 145.601562 C 232.125 145.191406 232.328125 144.882812 232.53125 144.679688 L 232.53125 143.035156 L 228.0625 143.035156 L 225.625 167.996094 L 251.125 167.996094 Z M 238.425781 160.703125 C 233.144531 158.238281 231.3125 154.027344 233.144531 151.664062 C 234.972656 149.300781 238.425781 150.738281 238.425781 153.101562 C 238.425781 150.738281 241.980469 149.300781 243.707031 151.664062 C 245.535156 154.027344 243.707031 158.238281 238.425781 160.703125 Z M 233.246094 145.808594 C 233.144531 145.703125 233.144531 145.703125 233.144531 145.601562 L 233.144531 140.261719 C 233.144531 138.925781 233.753906 137.589844 234.667969 136.664062 C 235.582031 135.636719 236.902344 135.125 238.222656 135.125 L 238.628906 135.125 C 239.949219 135.125 241.269531 135.636719 242.183594 136.664062 C 243.199219 137.589844 243.707031 138.925781 243.707031 140.261719 L 243.707031 145.601562 C 243.707031 145.703125 243.605469 145.808594 243.605469 145.808594 C 243.503906 145.910156 243.503906 145.910156 243.402344 145.910156 C 243.300781 145.910156 243.199219 145.808594 243.199219 145.808594 C 243.097656 145.703125 243.097656 145.703125 243.097656 145.601562 L 243.097656 140.261719 C 243.097656 139.027344 242.589844 137.898438 241.777344 137.078125 C 240.964844 136.253906 239.847656 135.742188 238.628906 135.742188 L 238.222656 135.742188 C 237.003906 135.742188 235.886719 136.253906 235.074219 137.078125 C 234.261719 137.898438 233.753906 139.027344 233.753906 140.261719 L 233.753906 145.601562 C 233.753906 145.703125 233.652344 145.808594 233.652344 145.808594 C 233.550781 145.910156 233.550781 145.910156 233.449219 145.910156 C 233.347656 145.910156 233.246094 145.808594 233.246094 145.808594 Z M 233.246094 145.808594 " fill-opacity="1" fill-rule="nonzero"/></g><g clip-path="url(#6dd8388b47)"><path fill="#ff9e01" d="M 251.417969 166.734375 L 241.046875 209.902344 C 241.046875 210.316406 240.964844 210.714844 240.808594 211.097656 C 240.648438 211.480469 240.421875 211.816406 240.128906 212.109375 C 239.835938 212.40625 239.5 212.628906 239.117188 212.789062 C 238.734375 212.949219 238.339844 213.03125 237.925781 213.03125 L 168.042969 213.539062 C 167.628906 213.539062 167.230469 213.457031 166.847656 213.296875 C 166.464844 213.136719 166.128906 212.910156 165.835938 212.617188 C 165.542969 212.324219 165.316406 211.988281 165.160156 211.605469 C 165 211.222656 164.917969 210.824219 164.917969 210.410156 L 164.917969 166.730469 C 164.917969 166.644531 164.921875 166.558594 164.929688 166.472656 L 163.984375 158.023438 L 153.65625 158.023438 C 153.082031 158 152.535156 157.871094 152.015625 157.636719 C 151.492188 157.398438 151.035156 157.074219 150.636719 156.664062 C 150.242188 156.25 149.9375 155.777344 149.722656 155.246094 C 149.511719 154.714844 149.402344 154.160156 149.402344 153.589844 C 149.402344 153.015625 149.511719 152.464844 149.722656 151.929688 C 149.9375 151.398438 150.242188 150.925781 150.636719 150.515625 C 151.035156 150.101562 151.492188 149.777344 152.015625 149.542969 C 152.535156 149.308594 153.082031 149.179688 153.65625 149.15625 L 171.890625 149.15625 C 171.890625 149.171875 171.890625 149.1875 171.890625 149.203125 L 172.875 158.027344 L 173.5 163.601562 L 248.296875 163.601562 C 248.710938 163.605469 249.109375 163.683594 249.488281 163.84375 C 249.871094 164.003906 250.210938 164.230469 250.5 164.523438 C 250.792969 164.816406 251.019531 165.15625 251.179688 165.539062 C 251.335938 165.921875 251.417969 166.320312 251.417969 166.734375 Z M 251.417969 166.734375 " fill-opacity="1" fill-rule="nonzero"/></g><g clip-path="url(#606e4ff1f7)"><path fill="#ff7312" d="M 186.664062 227.734375 C 186.664062 228.480469 186.589844 229.222656 186.445312 229.957031 C 186.296875 230.691406 186.082031 231.40625 185.796875 232.097656 C 185.511719 232.789062 185.160156 233.449219 184.746094 234.070312 C 184.328125 234.691406 183.859375 235.269531 183.328125 235.796875 C 182.800781 236.328125 182.226562 236.800781 181.605469 237.21875 C 180.984375 237.632812 180.328125 237.984375 179.636719 238.269531 C 178.945312 238.558594 178.234375 238.773438 177.5 238.921875 C 176.769531 239.066406 176.027344 239.140625 175.28125 239.140625 C 174.535156 239.140625 173.792969 239.066406 173.058594 238.921875 C 172.328125 238.773438 171.617188 238.558594 170.925781 238.269531 C 170.234375 237.984375 169.578125 237.632812 168.957031 237.21875 C 168.335938 236.800781 167.761719 236.328125 167.230469 235.796875 C 166.703125 235.269531 166.230469 234.691406 165.816406 234.070312 C 165.402344 233.449219 165.050781 232.789062 164.765625 232.097656 C 164.480469 231.40625 164.261719 230.691406 164.117188 229.957031 C 163.972656 229.222656 163.898438 228.480469 163.898438 227.734375 C 163.898438 226.984375 163.972656 226.242188 164.117188 225.507812 C 164.261719 224.773438 164.480469 224.058594 164.765625 223.367188 C 165.050781 222.675781 165.402344 222.019531 165.816406 221.398438 C 166.230469 220.773438 166.703125 220.199219 167.230469 219.667969 C 167.761719 219.136719 168.335938 218.664062 168.957031 218.25 C 169.578125 217.832031 170.234375 217.480469 170.925781 217.195312 C 171.617188 216.910156 172.328125 216.691406 173.058594 216.546875 C 173.792969 216.402344 174.535156 216.328125 175.28125 216.328125 C 176.027344 216.328125 176.769531 216.402344 177.5 216.546875 C 178.234375 216.691406 178.945312 216.910156 179.636719 217.195312 C 180.328125 217.480469 180.984375 217.832031 181.605469 218.25 C 182.226562 218.664062 182.800781 219.136719 183.328125 219.667969 C 183.859375 220.199219 184.328125 220.773438 184.746094 221.398438 C 185.160156 222.019531 185.511719 222.675781 185.796875 223.367188 C 186.082031 224.058594 186.296875 224.773438 186.445312 225.507812 C 186.589844 226.242188 186.664062 226.984375 186.664062 227.734375 Z M 186.664062 227.734375 " fill-opacity="1" fill-rule="nonzero"/></g><g clip-path="url(#52f758ca93)"><path fill="#ff7312" d="M 218.789062 227.734375 C 218.789062 228.480469 218.714844 229.222656 218.570312 229.957031 C 218.421875 230.691406 218.207031 231.40625 217.921875 232.097656 C 217.636719 232.789062 217.285156 233.449219 216.871094 234.070312 C 216.453125 234.691406 215.984375 235.269531 215.453125 235.796875 C 214.925781 236.328125 214.351562 236.800781 213.730469 237.21875 C 213.109375 237.632812 212.453125 237.984375 211.761719 238.269531 C 211.070312 238.558594 210.359375 238.773438 209.625 238.921875 C 208.894531 239.066406 208.152344 239.140625 207.40625 239.140625 C 206.65625 239.140625 205.917969 239.066406 205.183594 238.921875 C 204.453125 238.773438 203.738281 238.558594 203.050781 238.269531 C 202.359375 237.984375 201.703125 237.632812 201.082031 237.21875 C 200.460938 236.800781 199.886719 236.328125 199.355469 235.796875 C 198.828125 235.269531 198.355469 234.691406 197.941406 234.070312 C 197.527344 233.449219 197.175781 232.789062 196.890625 232.097656 C 196.605469 231.40625 196.386719 230.691406 196.242188 229.957031 C 196.097656 229.222656 196.023438 228.480469 196.023438 227.734375 C 196.023438 226.984375 196.097656 226.242188 196.242188 225.507812 C 196.386719 224.773438 196.605469 224.058594 196.890625 223.367188 C 197.175781 222.675781 197.527344 222.019531 197.941406 221.398438 C 198.355469 220.773438 198.828125 220.199219 199.355469 219.667969 C 199.886719 219.136719 200.460938 218.664062 201.082031 218.25 C 201.703125 217.832031 202.359375 217.480469 203.050781 217.195312 C 203.738281 216.910156 204.453125 216.691406 205.183594 216.546875 C 205.917969 216.402344 206.65625 216.328125 207.40625 216.328125 C 208.152344 216.328125 208.894531 216.402344 209.625 216.546875 C 210.359375 216.691406 211.070312 216.910156 211.761719 217.195312 C 212.453125 217.480469 213.109375 217.832031 213.730469 218.25 C 214.351562 218.664062 214.925781 219.136719 215.453125 219.667969 C 215.984375 220.199219 216.453125 220.773438 216.871094 221.398438 C 217.285156 222.019531 217.636719 222.675781 217.921875 223.367188 C 218.207031 224.058594 218.421875 224.773438 218.570312 225.507812 C 218.714844 226.242188 218.789062 226.984375 218.789062 227.734375 Z M 218.789062 227.734375 " fill-opacity="1" fill-rule="nonzero"/></g><path fill="#ff9e01" d="M 131.265625 167.40625 L 157.320312 167.40625 C 157.722656 167.40625 158.109375 167.480469 158.484375 167.636719 C 158.855469 167.789062 159.183594 168.011719 159.46875 168.296875 C 159.753906 168.582031 159.972656 168.910156 160.125 169.28125 C 160.28125 169.65625 160.355469 170.042969 160.355469 170.445312 L 160.355469 171.207031 C 160.355469 171.609375 160.28125 172 160.125 172.371094 C 159.972656 172.742188 159.753906 173.074219 159.46875 173.359375 C 159.183594 173.644531 158.855469 173.863281 158.484375 174.015625 C 158.109375 174.171875 157.722656 174.25 157.320312 174.25 L 131.265625 174.25 C 130.863281 174.25 130.476562 174.171875 130.105469 174.015625 C 129.734375 173.863281 129.40625 173.644531 129.121094 173.359375 C 128.835938 173.074219 128.617188 172.742188 128.464844 172.371094 C 128.308594 172 128.230469 171.609375 128.230469 171.207031 L 128.230469 170.445312 C 128.230469 170.042969 128.308594 169.65625 128.464844 169.28125 C 128.617188 168.910156 128.835938 168.582031 129.121094 168.296875 C 129.40625 168.011719 129.734375 167.789062 130.105469 167.636719 C 130.476562 167.480469 130.863281 167.40625 131.265625 167.40625 Z M 131.265625 167.40625 " fill-opacity="1" fill-rule="nonzero"/><path fill="#ff9e01" d="M 131.265625 209.988281 L 157.320312 209.988281 C 157.722656 209.988281 158.109375 210.066406 158.484375 210.222656 C 158.855469 210.375 159.183594 210.59375 159.46875 210.878906 C 159.753906 211.164062 159.972656 211.496094 160.125 211.867188 C 160.28125 212.238281 160.355469 212.628906 160.355469 213.03125 L 160.355469 213.792969 C 160.355469 214.195312 160.28125 214.582031 160.125 214.957031 C 159.972656 215.328125 159.753906 215.65625 159.46875 215.941406 C 159.183594 216.226562 158.855469 216.445312 158.484375 216.601562 C 158.109375 216.757812 157.722656 216.832031 157.320312 216.832031 L 131.265625 216.832031 C 130.863281 216.832031 130.476562 216.757812 130.105469 216.601562 C 129.734375 216.445312 129.40625 216.226562 129.121094 215.941406 C 128.835938 215.65625 128.617188 215.328125 128.464844 214.957031 C 128.308594 214.582031 128.230469 214.195312 128.230469 213.792969 L 128.230469 213.03125 C 128.230469 212.628906 128.308594 212.238281 128.464844 211.867188 C 128.617188 211.496094 128.835938 211.164062 129.121094 210.878906 C 129.40625 210.59375 129.734375 210.375 130.105469 210.222656 C 130.476562 210.066406 130.863281 209.988281 131.265625 209.988281 Z M 131.265625 209.988281 " fill-opacity="1" fill-rule="nonzero"/><g clip-path="url(#4031c53e6b)"><path fill="#ff9e01" d="M 104.832031 188.191406 L 156.941406 188.191406 C 157.394531 188.191406 157.832031 188.277344 158.25 188.449219 C 158.667969 188.625 159.035156 188.871094 159.355469 189.191406 C 159.675781 189.511719 159.921875 189.882812 160.097656 190.304688 C 160.269531 190.722656 160.355469 191.160156 160.355469 191.613281 C 160.355469 192.066406 160.269531 192.503906 160.097656 192.921875 C 159.921875 193.339844 159.675781 193.710938 159.355469 194.03125 C 159.035156 194.351562 158.667969 194.601562 158.25 194.773438 C 157.832031 194.949219 157.394531 195.035156 156.941406 195.035156 L 104.832031 195.035156 C 104.382812 195.035156 103.945312 194.949219 103.527344 194.773438 C 103.109375 194.601562 102.738281 194.351562 102.417969 194.03125 C 102.097656 193.710938 101.851562 193.339844 101.679688 192.921875 C 101.503906 192.503906 101.417969 192.066406 101.417969 191.613281 C 101.417969 191.160156 101.503906 190.722656 101.679688 190.304688 C 101.851562 189.882812 102.097656 189.511719 102.417969 189.191406 C 102.738281 188.871094 103.109375 188.625 103.527344 188.449219 C 103.945312 188.277344 104.382812 188.191406 104.832031 188.191406 Z M 104.832031 188.191406 " fill-opacity="1" fill-rule="nonzero"/></g><g fill="#f2eddb" fill-opacity="1"><g transform="translate(168.803989, 192.162907)"><g><path d="M 6.359375 0.21875 C 4.398438 0.21875 2.882812 -0.28125 1.8125 -1.28125 C 0.75 -2.28125 0.21875 -3.875 0.21875 -6.0625 C 0.21875 -10.25 2.253906 -12.34375 6.328125 -12.34375 C 7.316406 -12.34375 8.234375 -12.222656 9.078125 -11.984375 C 9.929688 -11.753906 10.566406 -11.492188 10.984375 -11.203125 L 10.984375 -7.296875 L 7.234375 -7.296875 L 7.234375 -8.421875 C 7.234375 -8.816406 7.144531 -9.109375 6.96875 -9.296875 C 6.789062 -9.484375 6.523438 -9.578125 6.171875 -9.578125 C 5.816406 -9.578125 5.550781 -9.484375 5.375 -9.296875 C 5.195312 -9.109375 5.109375 -8.816406 5.109375 -8.421875 L 5.109375 -3.71875 C 5.109375 -3.320312 5.195312 -3.03125 5.375 -2.84375 C 5.550781 -2.65625 5.816406 -2.5625 6.171875 -2.5625 C 6.523438 -2.5625 6.789062 -2.65625 6.96875 -2.84375 C 7.144531 -3.03125 7.234375 -3.320312 7.234375 -3.71875 L 7.234375 -4.96875 L 10.984375 -4.96875 L 10.984375 -0.9375 C 10.554688 -0.644531 9.921875 -0.378906 9.078125 -0.140625 C 8.242188 0.0976562 7.335938 0.21875 6.359375 0.21875 Z M 6.359375 0.21875 "/></g></g></g><g fill="#f2eddb" fill-opacity="1"><g transform="translate(180.712072, 192.162907)"><g><path d="M 12.78125 -9.578125 L 12 -9.578125 L 12 -2.5625 L 12.78125 -2.5625 L 12.78125 0 L 6.890625 0 L 6.890625 -2.5625 L 7.640625 -2.5625 L 7.640625 -5.125 L 5.453125 -5.125 L 5.453125 -2.5625 L 6.203125 -2.5625 L 6.203125 0 L 0.3125 0 L 0.3125 -2.5625 L 1.09375 -2.5625 L 1.09375 -9.578125 L 0.3125 -9.578125 L 0.3125 -12.125 L 6.203125 -12.125 L 6.203125 -9.578125 L 5.453125 -9.578125 L 5.453125 -7.203125 L 7.640625 -7.203125 L 7.640625 -9.578125 L 6.890625 -9.578125 L 6.890625 -12.125 L 12.78125 -12.125 Z M 12.78125 -9.578125 "/></g></g></g><g fill="#f2eddb" fill-opacity="1"><g transform="translate(194.45929, 192.162907)"><g><path d="M 11.75 -2.5625 L 12.375 -2.5625 L 12.375 0 L 6.265625 0 L 6.265625 -2.5625 L 7.203125 -2.5625 L 6.953125 -3.8125 L 4.828125 -3.8125 L 4.578125 -2.5625 L 5.515625 -2.5625 L 5.515625 0 L 0.1875 0 L 0.1875 -2.5625 L 0.8125 -2.5625 L 3.453125 -12.125 L 9.125 -12.125 Z M 5.171875 -5.453125 L 6.609375 -5.453125 L 5.96875 -8.5625 L 5.8125 -8.5625 Z M 5.171875 -5.453125 "/></g></g></g><g fill="#f2eddb" fill-opacity="1"><g transform="translate(207.676588, 192.162907)"><g><path d="M 0.3125 -2.5625 L 1.09375 -2.5625 L 1.09375 -9.578125 L 0.3125 -9.578125 L 0.3125 -12.125 L 7.46875 -12.125 C 8.8125 -12.125 9.835938 -11.847656 10.546875 -11.296875 C 11.253906 -10.753906 11.609375 -9.863281 11.609375 -8.625 C 11.609375 -7.925781 11.46875 -7.320312 11.1875 -6.8125 C 10.90625 -6.300781 10.503906 -5.945312 9.984375 -5.75 L 10 -5.59375 C 11 -5.4375 11.5 -4.828125 11.5 -3.765625 L 11.5 -2.5625 L 12.21875 -2.5625 L 12.21875 0 L 7.28125 0 L 7.28125 -3.671875 C 7.28125 -4.066406 7.21875 -4.367188 7.09375 -4.578125 C 6.976562 -4.785156 6.789062 -4.925781 6.53125 -5 C 6.28125 -5.070312 5.921875 -5.109375 5.453125 -5.109375 L 5.453125 -2.5625 L 6.484375 -2.5625 L 6.484375 0 L 0.3125 0 Z M 6.296875 -7.015625 C 6.597656 -7.015625 6.820312 -7.09375 6.96875 -7.25 C 7.125 -7.414062 7.203125 -7.671875 7.203125 -8.015625 L 7.203125 -8.578125 C 7.203125 -8.921875 7.125 -9.171875 6.96875 -9.328125 C 6.820312 -9.492188 6.597656 -9.578125 6.296875 -9.578125 L 5.453125 -9.578125 L 5.453125 -7.015625 Z M 6.296875 -7.015625 "/></g></g></g><g fill="#f2eddb" fill-opacity="1"><g transform="translate(220.800377, 192.162907)"><g><path d="M 17.515625 -9.578125 L 16.734375 -9.578125 L 16.734375 -2.5625 L 17.515625 -2.5625 L 17.515625 0 L 11.625 0 L 11.625 -2.5625 L 12.359375 -2.5625 L 12.359375 -8.015625 L 9.71875 0 L 7.40625 0 L 4.671875 -7.9375 L 4.671875 -2.5625 L 5.421875 -2.5625 L 5.421875 0 L 0.3125 0 L 0.3125 -2.5625 L 1.09375 -2.5625 L 1.09375 -9.578125 L 0.3125 -9.578125 L 0.3125 -12.125 L 7.453125 -12.125 L 9.078125 -7.265625 L 10.640625 -12.125 L 17.515625 -12.125 Z M 17.515625 -9.578125 "/></g></g></g><path stroke-linecap="butt" transform="matrix(0.75, 0, 0, 0.75, 168.367625, 179.707239)" fill="none" stroke-linejoin="miter" d="M 8.483792 17.291391 C 5.864 17.291391 3.843166 16.624725 2.421291 15.2966 C 0.999416 13.963266 0.291083 11.838266 0.291083 8.916391 C 0.291083 3.327849 3.004625 0.536182 8.442125 0.536182 C 9.754625 0.536182 10.978583 0.692432 12.108792 1.01014 C 13.239 1.327849 14.08275 1.682015 14.640042 2.07264 L 14.640042 7.270557 L 9.650458 7.270557 L 9.650458 5.770557 C 9.650458 5.249724 9.530667 4.859099 9.291083 4.609099 C 9.056708 4.359099 8.702542 4.234099 8.233792 4.234099 C 7.759833 4.234099 7.410875 4.359099 7.171292 4.609099 C 6.936917 4.859099 6.817125 5.249724 6.817125 5.770557 L 6.817125 12.051808 C 6.817125 12.577849 6.936917 12.968474 7.171292 13.218474 C 7.410875 13.463266 7.759833 13.588266 8.233792 13.588266 C 8.702542 13.588266 9.056708 13.463266 9.291083 13.218474 C 9.530667 12.968474 9.650458 12.577849 9.650458 12.051808 L 9.650458 10.364308 L 14.640042 10.364308 L 14.640042 15.749725 C 14.072334 16.14035 13.228584 16.494516 12.108792 16.812225 C 10.994208 17.129933 9.785875 17.291391 8.483792 17.291391 Z M 32.926502 4.234099 L 31.884835 4.234099 L 31.884835 13.588266 L 32.926502 13.588266 L 32.926502 16.999725 L 25.061918 16.999725 L 25.061918 13.588266 L 26.061918 13.588266 L 26.061918 10.155974 L 23.155668 10.155974 L 23.155668 13.588266 L 24.150459 13.588266 L 24.150459 16.999725 L 16.291084 16.999725 L 16.291084 13.588266 L 17.332751 13.588266 L 17.332751 4.234099 L 16.291084 4.234099 L 16.291084 0.82264 L 24.150459 0.82264 L 24.150459 4.234099 L 23.155668 4.234099 L 23.155668 7.395557 L 26.061918 7.395557 L 26.061918 4.234099 L 25.061918 4.234099 L 25.061918 0.82264 L 32.926502 0.82264 Z M 49.879628 13.588266 L 50.712961 13.588266 L 50.712961 16.999725 L 42.567127 16.999725 L 42.567127 13.588266 L 43.811919 13.588266 L 43.478586 11.926808 L 40.655669 11.926808 L 40.317127 13.588266 L 41.567127 13.588266 L 41.567127 16.999725 L 34.457752 16.999725 L 34.457752 13.588266 L 35.285877 13.588266 L 38.801502 0.82264 L 46.369211 0.82264 Z M 41.108794 9.723683 L 43.025461 9.723683 L 42.171294 5.583057 L 41.96296 5.583057 Z M 52.244211 13.588266 L 53.285878 13.588266 L 53.285878 4.234099 L 52.244211 4.234099 L 52.244211 0.82264 L 61.791087 0.82264 C 63.577545 0.82264 64.93692 1.192432 65.879629 1.926807 C 66.822337 2.661182 67.296295 3.85389 67.296295 5.504932 C 67.296295 6.432016 67.108795 7.234099 66.733795 7.916391 C 66.358795 8.593474 65.827545 9.067432 65.134837 9.333057 L 65.160879 9.536182 C 66.489004 9.744516 67.15567 10.562224 67.15567 11.989308 L 67.15567 13.588266 L 68.129629 13.588266 L 68.129629 16.999725 L 61.541087 16.999725 L 61.541087 12.114308 C 61.541087 11.572641 61.462962 11.166391 61.301503 10.890349 C 61.140045 10.609099 60.890045 10.426808 60.551503 10.333058 C 60.212962 10.234099 59.733795 10.182016 59.108795 10.182016 L 59.108795 13.588266 L 60.478587 13.588266 L 60.478587 16.999725 L 52.244211 16.999725 Z M 60.228587 7.645557 C 60.634837 7.645557 60.931712 7.541391 61.134837 7.327849 C 61.332753 7.109099 61.431712 6.770557 61.431712 6.317432 L 61.431712 5.562224 C 61.431712 5.109099 61.332753 4.770557 61.134837 4.557016 C 60.931712 4.343474 60.634837 4.234099 60.228587 4.234099 L 59.108795 4.234099 L 59.108795 7.645557 Z M 92.676505 4.234099 L 91.634839 4.234099 L 91.634839 13.588266 L 92.676505 13.588266 L 92.676505 16.999725 L 84.81713 16.999725 L 84.81713 13.588266 L 85.811922 13.588266 L 85.811922 6.317432 L 82.280671 16.999725 L 79.207755 16.999725 L 75.567129 6.416391 L 75.567129 13.588266 L 76.561921 13.588266 L 76.561921 16.999725 L 69.744212 16.999725 L 69.744212 13.588266 L 70.785879 13.588266 L 70.785879 4.234099 L 69.744212 4.234099 L 69.744212 0.82264 L 79.265046 0.82264 L 81.426505 7.312224 L 83.50463 0.82264 L 92.676505 0.82264 Z M 92.676505 4.234099 " stroke="#7ed957" stroke-width="0.480866" stroke-opacity="1" stroke-miterlimit="4"/></svg>